<svg id="Calque_1" data-name="Calque 1" xmlns="http://www.w3.org/2000/svg" viewBox="0 0 328.84 394.47"><defs><style>.cls-1,.cls-2,.cls-4{fill:#f4ca5b;}.cls-1,.cls-2,.cls-3,.cls-4{stroke:#000;stroke-width:8px;}.cls-1{stroke-linecap:square;}.cls-1,.cls-2,.cls-3{stroke-miterlimit:10;}.cls-2,.cls-3,.cls-4{stroke-linecap:round;}.cls-3{fill:#fff;}.cls-4{stroke-linejoin:round;}</style></defs><path class="cls-1" d="M10.91,75.42H40.17a6.35,6.35,0,0,1,6.35,6.35V193a5.11,5.11,0,0,1-5.11,5.11H4.55a0,0,0,0,1,0,0V81.77a6.35,6.35,0,0,1,6.35-6.35Z"/><path class="cls-2" d="M73.42,36.61h29.4A5.37,5.37,0,0,1,108.2,42V198a0,0,0,0,1,0,0H73.42A5.37,5.37,0,0,1,68,192.61V42A5.37,5.37,0,0,1,73.42,36.61Z"/><path class="cls-3" d="M362.24,396.41c0,.14,0,.27,0,.41,0,33.76-24.93,61.14-55.67,61.14s-55.68-27.38-55.68-61.14c0-.14,0-.27,0-.41H146.16v26.43c0,5.42,4,9.82,8.93,9.82h28.68a9,9,0,0,1,8.19,5.89l7.68,19.35a10.54,10.54,0,0,1-1.87,10.86L179.33,489a10.52,10.52,0,0,0,0,13.87l31.56,34.66a8.37,8.37,0,0,0,12.64,0L241.36,518a8.35,8.35,0,0,1,10.08-2L268,524.41a9.93,9.93,0,0,1,5.18,8.91V563.9c0,5.42,4,9.81,8.93,9.81h47.57c4.93,0,8.94-4.39,8.94-9.81V531.28a9.82,9.82,0,0,1,5.92-9.24l17.65-6.93a8.34,8.34,0,0,1,9.06,2l21.86,22.07a8.36,8.36,0,0,0,12.36-.29L437.24,504a10.51,10.51,0,0,0,0-13.88l-21-23.07a10.55,10.55,0,0,1-1.78-11.08l7.66-18.13a8.94,8.94,0,0,1,8.11-5.68h27.84c4.94,0,8.94-4.39,8.94-9.81v-25.9Z" transform="translate(-142.16 -183.25)"/><path class="cls-4" d="M147.8,4h33.08a6.35,6.35,0,0,1,6.35,6.35V237.86a5,5,0,0,1-5,5H147.8a6.35,6.35,0,0,1-6.35-6.35V10.35A6.35,6.35,0,0,1,147.8,4Z"/><path class="cls-2" d="M225.83,37.45h27.45a6.35,6.35,0,0,1,6.35,6.35V194.09a4.13,4.13,0,0,1-4.13,4.13h-36a0,0,0,0,1,0,0V43.8a6.35,6.35,0,0,1,6.35-6.35Z"/><path class="cls-2" d="M288.93,75h28.94a6.51,6.51,0,0,1,6.51,6.51V197.94a0,0,0,0,1,0,0H286.16a3.75,3.75,0,0,1-3.75-3.75V81.5A6.51,6.51,0,0,1,288.93,75Z"/></svg>