<svg id="Calque_1" data-name="Calque 1" xmlns="http://www.w3.org/2000/svg" viewBox="0 0 330.84 396.47"><defs><style>.cls-1,.cls-2,.cls-4{fill:#f4c95a;}.cls-1,.cls-2,.cls-3,.cls-4{stroke:#000;stroke-width:10px;}.cls-1{stroke-linecap:square;}.cls-1,.cls-2,.cls-3{stroke-miterlimit:10;}.cls-2,.cls-3,.cls-4{stroke-linecap:round;}.cls-3{fill:#fff;}.cls-4{stroke-linejoin:round;}</style></defs><path class="cls-1" d="M11.91,76.42H41.17a6.35,6.35,0,0,1,6.35,6.35V194a5.11,5.11,0,0,1-5.11,5.11H5.55a0,0,0,0,1,0,0V82.77a6.35,6.35,0,0,1,6.35-6.35Z"/><path class="cls-2" d="M74.42,37.61h29.4A5.37,5.37,0,0,1,109.2,43V199a0,0,0,0,1,0,0H74.42A5.37,5.37,0,0,1,69,193.61V43A5.37,5.37,0,0,1,74.42,37.61Z"/><path class="cls-3" d="M362.24,396.41c0,.14,0,.27,0,.41,0,33.76-24.93,61.14-55.67,61.14s-55.68-27.38-55.68-61.14c0-.14,0-.27,0-.41H146.16v26.43c0,5.42,4,9.82,8.93,9.82h28.68a9,9,0,0,1,8.19,5.89l7.68,19.35a10.54,10.54,0,0,1-1.87,10.86L179.33,489a10.52,10.52,0,0,0,0,13.87l31.56,34.66a8.37,8.37,0,0,0,12.64,0L241.36,518a8.35,8.35,0,0,1,10.08-2L268,524.41a9.93,9.93,0,0,1,5.18,8.91V563.9c0,5.42,4,9.81,8.93,9.81h47.57c4.93,0,8.94-4.39,8.94-9.81V531.28a9.82,9.82,0,0,1,5.92-9.24l17.65-6.93a8.34,8.34,0,0,1,9.06,2l21.86,22.07a8.36,8.36,0,0,0,12.36-.29L437.24,504a10.51,10.51,0,0,0,0-13.88l-21-23.07a10.55,10.55,0,0,1-1.78-11.08l7.66-18.13a8.94,8.94,0,0,1,8.11-5.68h27.84c4.94,0,8.94-4.39,8.94-9.81v-25.9Z" transform="translate(-141.16 -182.25)"/><path class="cls-4" d="M164.43,5h1.81a22,22,0,0,1,22,22V223.23a20.67,20.67,0,0,1-20.67,20.67h-3.13a22,22,0,0,1-22-22V27a22,22,0,0,1,22-22Z"/><path class="cls-2" d="M226.83,38.45h27.45a6.35,6.35,0,0,1,6.35,6.35V195.09a4.13,4.13,0,0,1-4.13,4.13h-36a0,0,0,0,1,0,0V44.8a6.35,6.35,0,0,1,6.35-6.35Z"/><path class="cls-2" d="M289.93,76h28.94a6.51,6.51,0,0,1,6.51,6.51V198.94a0,0,0,0,1,0,0H287.16a3.75,3.75,0,0,1-3.75-3.75V82.5A6.51,6.51,0,0,1,289.93,76Z"/></svg>