<svg id="Calque_4" xmlns="http://www.w3.org/2000/svg" viewBox="0 0 155.69 186.45"><defs><style>.cls-1{fill:none;stroke:#000;stroke-linecap:round;stroke-linejoin:round;stroke-width:5px;}</style></defs><path class="cls-1" d="M9.42,36.72h7a6.35,6.35,0,0,1,6.35,6.35V86a6.35,6.35,0,0,1-6.35,6.35H3.07a0,0,0,0,1,0,0V43.07A6.35,6.35,0,0,1,9.42,36.72Z"></path><path class="cls-1" d="M38.32,19.43h6.15a6.35,6.35,0,0,1,6.35,6.35v67a0,0,0,0,1,0,0H38.32A6.35,6.35,0,0,1,32,86.45V25.79a6.35,6.35,0,0,1,6.35-6.35Z"></path><path class="cls-1" d="M738.76,499.29c0,.06,0,.13,0,.19,0,15.86-11.71,28.72-26.15,28.72s-26.14-12.86-26.14-28.72v-.19h-49.2V511.7a4.41,4.41,0,0,0,4.19,4.61h13.47a4.21,4.21,0,0,1,3.85,2.77l3.6,9.09a4.94,4.94,0,0,1-.88,5.1l-8.65,9.51a4.94,4.94,0,0,0,0,6.52l14.82,16.27a3.93,3.93,0,0,0,5.93,0l8.38-9.2a3.93,3.93,0,0,1,4.73-.92l7.76,4a4.65,4.65,0,0,1,2.43,4.18V578a4.42,4.42,0,0,0,4.19,4.61h22.34a4.42,4.42,0,0,0,4.2-4.61V562.63a4.61,4.61,0,0,1,2.78-4.34l8.29-3.26a3.94,3.94,0,0,1,4.26,1l10.26,10.36a3.92,3.92,0,0,0,5.81-.13L774,549.8a4.94,4.94,0,0,0,0-6.52l-9.86-10.84a4.94,4.94,0,0,1-.84-5.2l3.6-8.51a4.19,4.19,0,0,1,3.81-2.67h13.07a4.42,4.42,0,0,0,4.2-4.61V499.29Z" transform="translate(-634.78 -398.61)"></path><path class="cls-1" d="M73.83,2.5H80a6.35,6.35,0,0,1,6.35,6.35V111a5,5,0,0,1-5,5H73.83a6.35,6.35,0,0,1-6.35-6.35V8.85A6.35,6.35,0,0,1,73.83,2.5Z"></path><path class="cls-1" d="M111.1,19.93h6.15a6.35,6.35,0,0,1,6.35,6.35V89.16a4.13,4.13,0,0,1-4.13,4.13H104.74a0,0,0,0,1,0,0v-67a6.35,6.35,0,0,1,6.35-6.35Z"></path><path class="cls-1" d="M139.28,37.43h7a6.35,6.35,0,0,1,6.35,6.35V93.11a0,0,0,0,1,0,0h-14a5.71,5.71,0,0,1-5.71-5.71V43.78A6.35,6.35,0,0,1,139.28,37.43Z"></path></svg>