<svg id="Calque_1" xmlns="http://www.w3.org/2000/svg" viewBox="0 0 247 248.56"><defs><style>.cls-1,.cls-4{fill:none;}.cls-1,.cls-2,.cls-4,.cls-5{stroke:#000;}.cls-1,.cls-5{stroke-miterlimit:10;}.cls-1,.cls-2,.cls-4{stroke-width:5px;}.cls-2,.cls-4{stroke-linecap:round;stroke-linejoin:round;}.cls-3{fill:#fff;}.cls-5{stroke-width:4px;}</style></defs><path class="cls-1" d="M1094,614.53h-17.57a95.62,95.62,0,0,0-6.93-16.38l14.23-15.84a12,12,0,0,0-.91-16.94L1064,548.47a12,12,0,0,0-16.94.91L1035.76,562A96,96,0,0,0,1012,551.11V534.44a12,12,0,0,0-12-12H971a12,12,0,0,0-12,12v15.82a95.83,95.83,0,0,0-19.49,7.53l-13.66-13.67a12,12,0,0,0-17,0l-18.3,18.3a12,12,0,0,0,0,17l11.95,12a96,96,0,0,0-11.62,25.34H876a12,12,0,0,0-12,12v25.64a12,12,0,0,0,12,12h13.58a96.27,96.27,0,0,0,9.86,25.24l-12.51,12.51a12,12,0,0,0,0,17l22.53,22.53a12,12,0,0,0,17,0l13.26-13.26a95.77,95.77,0,0,0,18.84,7.3V754a12,12,0,0,0,12,12h29.94a12,12,0,0,0,12-12V736.75a96,96,0,0,0,19.09-8.19l11.51,11.51a12,12,0,0,0,17,0l22.53-22.53a12,12,0,0,0,0-17l-12.26-12.26a96.82,96.82,0,0,0,7.58-19.84H1094a12,12,0,0,0,12-12V626.53A12,12,0,0,0,1094,614.53ZM1047.72,637A20.05,20.05,0,0,1,1032,656.52a50,50,0,1,1-12.88-49.46h8.58a20.05,20.05,0,0,1,20,20Z" transform="translate(-861.5 -519.94)"></path><path class="cls-1" d="M1006.28,626v11a20.06,20.06,0,0,1-20,20h-11a20.05,20.05,0,0,1-20-20V626a20.05,20.05,0,0,1,20-20h11a20.07,20.07,0,0,1,20,20Z" transform="translate(-861.5 -519.94)"></path><path class="cls-1" d="M1047.72,627.05v10A20.05,20.05,0,0,1,1032,656.52a19.08,19.08,0,0,1-4.3.48h-10a20,20,0,0,1-15.74-7.71,19.89,19.89,0,0,0,4.25-12.28V626a19.84,19.84,0,0,0-3.84-11.73,20,20,0,0,1,15.33-7.2h10A20.05,20.05,0,0,1,1047.72,627.05Z" transform="translate(-861.5 -519.94)"></path><ellipse class="cls-2" cx="130" cy="111.56" rx="7.5" ry="11.5"></ellipse><ellipse class="cls-2" cx="169" cy="112.56" rx="7.5" ry="12.5"></ellipse><ellipse class="cls-3" cx="120.5" cy="105.56" rx="5" ry="1.5"></ellipse><ellipse class="cls-3" cx="159.5" cy="106.56" rx="5" ry="1.5"></ellipse><path class="cls-4" d="M1022.35,676" transform="translate(-861.5 -519.94)"></path><path class="cls-5" d="M959,550.64l5.84-.67a4.74,4.74,0,0,0,4.11-5.61c-1.45-7.34-3.57-20.22-.81-20.69C972,523,957,517.52,959,550.64Z" transform="translate(-861.5 -519.94)"></path><path class="cls-5" d="M903.83,590.26l4.77-5.34a5.36,5.36,0,0,0-1.59-8.37c-7.52-3.77-18.86-9.94-17.39-12.21C891.79,561,877.14,568.25,903.83,590.26Z" transform="translate(-861.5 -519.94)"></path><path class="cls-5" d="M890,663.56l0-3.29a8.11,8.11,0,0,0-10.4-7.64c-6.77,2-14.49,3.78-14.84,1.59C864.08,650.28,858.86,665.58,890,663.56Z" transform="translate(-861.5 -519.94)"></path><path class="cls-5" d="M940.24,729.86l-5.36-3.75a7.25,7.25,0,0,0-10,1.64c-4.92,6.64-12.73,16.44-14.81,14.72C907,739.92,911.65,755.85,940.24,729.86Z" transform="translate(-861.5 -519.94)"></path><path class="cls-5" d="M1010.79,736.27l-3.36.25a5.94,5.94,0,0,0-5.43,6.78c1.23,8.2,2.91,21.53.94,22C1000.09,765.87,1010.79,772.34,1010.79,736.27Z" transform="translate(-861.5 -519.94)"></path><path class="cls-5" d="M1068.72,690.45l-2.68,4.48a6,6,0,0,0,1.92,8.14c6.17,3.92,15.78,10.4,14.69,12.06C1081.06,717.56,1092.94,714.23,1068.72,690.45Z" transform="translate(-861.5 -519.94)"></path><path class="cls-5" d="M1076,614l1.2,6.59a6.12,6.12,0,0,0,6.83,5c7.73-1,20.51-2.42,20.86-.43C1105.38,628,1109.93,614.87,1076,614Z" transform="translate(-861.5 -519.94)"></path><path class="cls-5" d="M1037.53,563.57l3.38,2.61a5,5,0,0,0,7.26-1.28c4.14-6.56,11.46-17.62,13.23-16.59C1063.92,549.77,1059.94,538.09,1037.53,563.57Z" transform="translate(-861.5 -519.94)"></path><path d="M1017.77,657s10.93,5.9,4.58,19c0,0,11.71-19.91,9.68-19.43S1017.77,657,1017.77,657Z" transform="translate(-861.5 -519.94)"></path><path d="M1002.4,611.38s2.13-11.23-1.13-14.3,12.8,6.4,12.8,6.4l3.7,3.58Z" transform="translate(-861.5 -519.94)"></path></svg>